<svg width="84" height="51" viewBox="0 0 84 51" fill="none" xmlns="http://www.w3.org/2000/svg">
<path d="M6.67188 6.4929C6.61884 6.02225 6.40009 5.65767 6.01562 5.39915C5.63116 5.13731 5.14725 5.00639 4.56392 5.00639C4.14631 5.00639 3.78504 5.07268 3.48011 5.20526C3.17519 5.33452 2.93821 5.51349 2.76918 5.74219C2.60346 5.96757 2.5206 6.22443 2.5206 6.51278C2.5206 6.75473 2.57694 6.96354 2.68963 7.1392C2.80563 7.31487 2.95644 7.46236 3.14205 7.58168C3.33097 7.69768 3.53314 7.79545 3.74858 7.875C3.96402 7.95123 4.17116 8.0142 4.37003 8.06392L5.36435 8.32244C5.68916 8.40199 6.02225 8.50971 6.36364 8.6456C6.70502 8.78149 7.02154 8.96046 7.31321 9.18253C7.60488 9.40459 7.8402 9.67969 8.01918 10.0078C8.20147 10.3359 8.29261 10.7287 8.29261 11.1861C8.29261 11.7628 8.14347 12.2749 7.84517 12.7223C7.55019 13.1697 7.12098 13.5227 6.55753 13.7812C5.9974 14.0398 5.3196 14.169 4.52415 14.169C3.76184 14.169 3.10227 14.0481 2.54545 13.8061C1.98864 13.5642 1.55279 13.2211 1.23793 12.777C0.923059 12.3295 0.749053 11.7992 0.715909 11.1861H2.2571C2.28693 11.554 2.40625 11.8606 2.61506 12.1058C2.82718 12.3478 3.0973 12.5284 3.42543 12.6477C3.75687 12.7637 4.11979 12.8217 4.5142 12.8217C4.94839 12.8217 5.33452 12.7538 5.67259 12.6179C6.01397 12.4787 6.28243 12.2865 6.47798 12.0412C6.67353 11.7926 6.77131 11.5026 6.77131 11.1712C6.77131 10.8696 6.68513 10.6226 6.51278 10.4304C6.34375 10.2382 6.1134 10.0791 5.82173 9.95312C5.53338 9.82718 5.20691 9.71615 4.84233 9.62003L3.6392 9.2919C2.82386 9.06984 2.17756 8.74337 1.70028 8.3125C1.22633 7.88163 0.989347 7.31155 0.989347 6.60227C0.989347 6.01562 1.14844 5.50355 1.46662 5.06605C1.7848 4.62855 2.21567 4.28883 2.75923 4.04688C3.30279 3.80161 3.91596 3.67898 4.59872 3.67898C5.28812 3.67898 5.89631 3.79995 6.4233 4.0419C6.9536 4.28385 7.37121 4.61695 7.67614 5.04119C7.98106 5.46212 8.14015 5.94602 8.15341 6.4929H6.67188ZM18.9728 8.90909C18.9728 9.99621 18.774 10.9309 18.3762 11.7131C17.9785 12.492 17.4333 13.0919 16.7406 13.5128C16.0512 13.9304 15.2673 14.1392 14.389 14.1392C13.5074 14.1392 12.7202 13.9304 12.0275 13.5128C11.3381 13.0919 10.7946 12.4903 10.3968 11.7081C9.99911 10.9259 9.80025 9.9929 9.80025 8.90909C9.80025 7.82197 9.99911 6.88897 10.3968 6.11008C10.7946 5.32789 11.3381 4.72798 12.0275 4.31037C12.7202 3.88944 13.5074 3.67898 14.389 3.67898C15.2673 3.67898 16.0512 3.88944 16.7406 4.31037C17.4333 4.72798 17.9785 5.32789 18.3762 6.11008C18.774 6.88897 18.9728 7.82197 18.9728 8.90909ZM17.4515 8.90909C17.4515 8.08049 17.3173 7.38281 17.0488 6.81605C16.7837 6.24598 16.4191 5.8151 15.9551 5.52344C15.4944 5.22846 14.9724 5.08097 14.389 5.08097C13.8024 5.08097 13.2787 5.22846 12.818 5.52344C12.3573 5.8151 11.9927 6.24598 11.7243 6.81605C11.4591 7.38281 11.3265 8.08049 11.3265 8.90909C11.3265 9.73769 11.4591 10.437 11.7243 11.0071C11.9927 11.5739 12.3573 12.0047 12.818 12.2997C13.2787 12.5914 13.8024 12.7372 14.389 12.7372C14.9724 12.7372 15.4944 12.5914 15.9551 12.2997C16.4191 12.0047 16.7837 11.5739 17.0488 11.0071C17.3173 10.437 17.4515 9.73769 17.4515 8.90909ZM29.3448 7.12926H27.7937C27.734 6.79782 27.623 6.50615 27.4606 6.25426C27.2982 6.00237 27.0993 5.78859 26.864 5.61293C26.6287 5.43726 26.3652 5.30469 26.0735 5.2152C25.7852 5.12571 25.4786 5.08097 25.1538 5.08097C24.5671 5.08097 24.0418 5.22846 23.5778 5.52344C23.1171 5.81842 22.7525 6.25095 22.484 6.82102C22.2189 7.3911 22.0863 8.08712 22.0863 8.90909C22.0863 9.73769 22.2189 10.437 22.484 11.0071C22.7525 11.5772 23.1187 12.008 23.5827 12.2997C24.0468 12.5914 24.5688 12.7372 25.1488 12.7372C25.4703 12.7372 25.7752 12.6941 26.0636 12.608C26.3552 12.5185 26.6187 12.3875 26.854 12.2152C27.0894 12.0429 27.2882 11.8324 27.4506 11.5838C27.6164 11.3319 27.7307 11.0436 27.7937 10.7188L29.3448 10.7237C29.262 11.2242 29.1012 11.6849 28.8626 12.1058C28.6272 12.5234 28.324 12.8847 27.9528 13.1896C27.5849 13.4912 27.1639 13.7249 26.69 13.8906C26.216 14.0563 25.699 14.1392 25.1388 14.1392C24.2572 14.1392 23.4717 13.9304 22.7823 13.5128C22.0929 13.0919 21.5494 12.4903 21.1516 11.7081C20.7572 10.9259 20.56 9.9929 20.56 8.90909C20.56 7.82197 20.7589 6.88897 21.1566 6.11008C21.5543 5.32789 22.0979 4.72798 22.7873 4.31037C23.4767 3.88944 24.2605 3.67898 25.1388 3.67898C25.6791 3.67898 26.1829 3.75687 26.6502 3.91264C27.1209 4.0651 27.5434 4.29048 27.918 4.58878C28.2925 4.88376 28.6024 5.24503 28.8477 5.67258C29.0929 6.09683 29.2586 6.58239 29.3448 7.12926ZM32.7193 3.81818V14H31.1831V3.81818H32.7193ZM35.8166 14H34.1859L37.85 3.81818H39.6248L43.2889 14H41.6582L38.7797 5.66761H38.7001L35.8166 14ZM36.09 10.0128H41.3798V11.3054H36.09V10.0128ZM44.7592 14V3.81818H46.2955V12.6776H50.9091V14H44.7592ZM52.6616 14V3.81818H54.1978V12.6776H58.8114V14H52.6616ZM59.0265 3.81818H60.7715L63.4313 8.44673H63.5407L66.2005 3.81818H67.9455L64.2516 10.0028V14H62.7203V10.0028L59.0265 3.81818ZM4.41477 31H1.11861V20.8182H4.51918C5.51681 20.8182 6.37358 21.022 7.08949 21.4297C7.8054 21.834 8.35393 22.4157 8.73509 23.1747C9.11956 23.9304 9.31179 24.8369 9.31179 25.8942C9.31179 26.9548 9.1179 27.8662 8.73011 28.6286C8.34564 29.3909 7.78883 29.9775 7.05966 30.3885C6.33049 30.7962 5.44886 31 4.41477 31ZM2.65483 29.6577H4.33026C5.10582 29.6577 5.75047 29.5118 6.2642 29.2202C6.77794 28.9252 7.16241 28.4993 7.41761 27.9425C7.67282 27.3823 7.80043 26.6996 7.80043 25.8942C7.80043 25.0954 7.67282 24.4176 7.41761 23.8608C7.16572 23.304 6.78954 22.8814 6.28906 22.593C5.78859 22.3047 5.16714 22.1605 4.42472 22.1605H2.65483V29.6577ZM11.2221 31V20.8182H17.6056V22.1406H12.7583V25.2429H17.2725V26.5604H12.7583V29.6776H17.6653V31H11.2221ZM25.2109 23.4929C25.1579 23.0223 24.9392 22.6577 24.5547 22.3991C24.1702 22.1373 23.6863 22.0064 23.103 22.0064C22.6854 22.0064 22.3241 22.0727 22.0192 22.2053C21.7143 22.3345 21.4773 22.5135 21.3082 22.7422C21.1425 22.9676 21.0597 23.2244 21.0597 23.5128C21.0597 23.7547 21.116 23.9635 21.2287 24.1392C21.3447 24.3149 21.4955 24.4624 21.6811 24.5817C21.87 24.6977 22.0722 24.7955 22.2876 24.875C22.5031 24.9512 22.7102 25.0142 22.9091 25.0639L23.9034 25.3224C24.2282 25.402 24.5613 25.5097 24.9027 25.6456C25.2441 25.7815 25.5606 25.9605 25.8523 26.1825C26.1439 26.4046 26.3793 26.6797 26.5582 27.0078C26.7405 27.3359 26.8317 27.7287 26.8317 28.1861C26.8317 28.7628 26.6825 29.2749 26.3842 29.7223C26.0893 30.1697 25.66 30.5227 25.0966 30.7812C24.5365 31.0398 23.8587 31.169 23.0632 31.169C22.3009 31.169 21.6413 31.0481 21.0845 30.8061C20.5277 30.5642 20.0919 30.2211 19.777 29.777C19.4621 29.3295 19.2881 28.7992 19.255 28.1861H20.7962C20.826 28.554 20.9453 28.8606 21.1541 29.1058C21.3662 29.3478 21.6364 29.5284 21.9645 29.6477C22.2959 29.7637 22.6589 29.8217 23.0533 29.8217C23.4875 29.8217 23.8736 29.7538 24.2116 29.6179C24.553 29.4787 24.8215 29.2865 25.017 29.0412C25.2126 28.7926 25.3104 28.5026 25.3104 28.1712C25.3104 27.8696 25.2242 27.6226 25.0518 27.4304C24.8828 27.2382 24.6525 27.0791 24.3608 26.9531C24.0724 26.8272 23.746 26.7161 23.3814 26.62L22.1783 26.2919C21.3629 26.0698 20.7166 25.7434 20.2393 25.3125C19.7654 24.8816 19.5284 24.3116 19.5284 23.6023C19.5284 23.0156 19.6875 22.5036 20.0057 22.0661C20.3239 21.6286 20.7547 21.2888 21.2983 21.0469C21.8419 20.8016 22.455 20.679 23.1378 20.679C23.8272 20.679 24.4354 20.8 24.9624 21.0419C25.4927 21.2839 25.9103 21.617 26.2152 22.0412C26.5201 22.4621 26.6792 22.946 26.6925 23.4929H25.2109ZM30.2037 20.8182V31H28.6674V20.8182H30.2037ZM39.3315 24.0348C39.2354 23.7332 39.1061 23.4631 38.9437 23.2244C38.7846 22.9825 38.594 22.777 38.372 22.608C38.1499 22.4356 37.8964 22.3047 37.6113 22.2152C37.3296 22.1257 37.0197 22.081 36.6816 22.081C36.1083 22.081 35.5912 22.2285 35.1305 22.5234C34.6698 22.8184 34.3052 23.2509 34.0368 23.821C33.7716 24.3878 33.639 25.0821 33.639 25.9041C33.639 26.7294 33.7733 27.4271 34.0417 27.9972C34.3102 28.5672 34.6781 28.9998 35.1454 29.2947C35.6127 29.5897 36.1447 29.7372 36.7413 29.7372C37.2948 29.7372 37.777 29.6245 38.188 29.3991C38.6023 29.1738 38.9222 28.8556 39.1475 28.4446C39.3762 28.0303 39.4906 27.5431 39.4906 26.983L39.8883 27.0575H36.975V25.7898H40.9771V26.9482C40.9771 27.8033 40.7948 28.5457 40.4302 29.1754C40.069 29.8018 39.5685 30.2857 38.9288 30.6271C38.2924 30.9685 37.5633 31.1392 36.7413 31.1392C35.8199 31.1392 35.0112 30.9271 34.3152 30.5028C33.6225 30.0786 33.0822 29.477 32.6944 28.6982C32.3066 27.916 32.1127 26.9879 32.1127 25.9141C32.1127 25.102 32.2254 24.3729 32.4508 23.7266C32.6762 23.0803 32.9927 22.5317 33.4004 22.081C33.8114 21.6269 34.2936 21.2805 34.8471 21.0419C35.4039 20.8 36.0121 20.679 36.6717 20.679C37.2219 20.679 37.734 20.7602 38.2079 20.9226C38.6852 21.085 39.1094 21.3153 39.4806 21.6136C39.8552 21.9119 40.1651 22.2666 40.4103 22.6776C40.6556 23.0852 40.8213 23.5376 40.9075 24.0348H39.3315ZM51.1452 20.8182V31H49.7333L44.5579 23.5327H44.4634V31H42.9272V20.8182H44.3491L49.5295 28.2955H49.6239V20.8182H51.1452ZM1.97869 48H0.348011L4.01207 37.8182H5.78693L9.45099 48H7.82031L4.94176 39.6676H4.86222L1.97869 48ZM2.25213 44.0128H7.5419V45.3054H2.25213V44.0128ZM18.8995 41.1293H17.3484C17.2887 40.7978 17.1777 40.5062 17.0153 40.2543C16.8529 40.0024 16.654 39.7886 16.4187 39.6129C16.1834 39.4373 15.9199 39.3047 15.6282 39.2152C15.3398 39.1257 15.0333 39.081 14.7085 39.081C14.1218 39.081 13.5965 39.2285 13.1325 39.5234C12.6718 39.8184 12.3072 40.2509 12.0387 40.821C11.7736 41.3911 11.641 42.0871 11.641 42.9091C11.641 43.7377 11.7736 44.437 12.0387 45.0071C12.3072 45.5772 12.6734 46.008 13.1374 46.2997C13.6014 46.5914 14.1235 46.7372 14.7035 46.7372C15.025 46.7372 15.3299 46.6941 15.6183 46.608C15.9099 46.5185 16.1734 46.3875 16.4087 46.2152C16.6441 46.0429 16.8429 45.8324 17.0053 45.5838C17.171 45.3319 17.2854 45.0436 17.3484 44.7188L18.8995 44.7237C18.8166 45.2242 18.6559 45.6849 18.4173 46.1058C18.1819 46.5234 17.8787 46.8847 17.5075 47.1896C17.1396 47.4912 16.7186 47.7249 16.2447 47.8906C15.7707 48.0563 15.2537 48.1392 14.6935 48.1392C13.8119 48.1392 13.0264 47.9304 12.337 47.5128C11.6476 47.0919 11.104 46.4903 10.7063 45.7081C10.3119 44.9259 10.1147 43.9929 10.1147 42.9091C10.1147 41.822 10.3136 40.889 10.7113 40.1101C11.109 39.3279 11.6526 38.728 12.342 38.3104C13.0314 37.8894 13.8152 37.679 14.6935 37.679C15.2338 37.679 15.7376 37.7569 16.2049 37.9126C16.6755 38.0651 17.0981 38.2905 17.4727 38.5888C17.8472 38.8838 18.1571 39.245 18.4023 39.6726C18.6476 40.0968 18.8133 40.5824 18.8995 41.1293ZM21.5295 48H19.8988L23.5629 37.8182H25.3377L29.0018 48H27.3711L24.4925 39.6676H24.413L21.5295 48ZM21.8029 44.0128H27.0927V45.3054H21.8029V44.0128ZM33.7683 48H30.4721V37.8182H33.8727C34.8703 37.8182 35.7271 38.022 36.443 38.4297C37.1589 38.834 37.7074 39.4157 38.0886 40.1747C38.4731 40.9304 38.6653 41.8369 38.6653 42.8942C38.6653 43.9548 38.4714 44.8662 38.0836 45.6286C37.6992 46.3909 37.1423 46.9775 36.4132 47.3885C35.684 47.7962 34.8024 48 33.7683 48ZM32.0083 46.6577H33.6838C34.4593 46.6577 35.104 46.5118 35.6177 46.2202C36.1315 45.9252 36.5159 45.4993 36.7711 44.9425C37.0263 44.3823 37.1539 43.6996 37.1539 42.8942C37.1539 42.0954 37.0263 41.4176 36.7711 40.8608C36.5192 40.304 36.1431 39.8814 35.6426 39.593C35.1421 39.3047 34.5207 39.1605 33.7782 39.1605H32.0083V46.6577ZM40.5756 48V37.8182H46.9592V39.1406H42.1119V42.2429H46.6261V43.5604H42.1119V46.6776H47.0188V48H40.5756ZM49.0112 37.8182H50.8755L54.117 45.733H54.2363L57.4778 37.8182H59.3422V48H57.8805V40.6321H57.786L54.7832 47.9851H53.5701L50.5673 40.6271H50.4728V48H49.0112V37.8182ZM60.7901 37.8182H62.5352L65.195 42.4467H65.3043L67.9641 37.8182H69.7092L66.0153 44.0028V48H64.484V44.0028L60.7901 37.8182Z" fill="white"/>
<path d="M74 3L62 24H82L70.5 47" stroke="#EBAE11" stroke-width="2"/>
</svg>
